<?xml version="1.0" ?>
<!DOCTYPE svg  PUBLIC '-//W3C//DTD SVG 1.1//EN'  'http://www.w3.org/Graphics/SVG/1.1/DTD/svg11.dtd'>
<!-- Uploaded to: SVG Repo, www.svgrepo.com, Generator: SVG Repo Mixer Tools -->
<svg fill="#000000" width="800px" height="800px" viewBox="0 0 48 48" style="fill-rule:evenodd;clip-rule:evenodd;stroke-linejoin:round;stroke-miterlimit:1.41421;" version="1.1" xml:space="preserve" xmlns="http://www.w3.org/2000/svg" xmlns:serif="http://www.serif.com/" xmlns:xlink="http://www.w3.org/1999/xlink">
<g id="camera_with_focus_area">
<path d="M6.913,13.102C6.913,12.596 7.327,12.183 7.833,12.183C8.339,12.183 8.75,12.596 8.75,13.102C8.75,13.606 8.339,14.019 7.833,14.019C7.327,14.019 6.913,13.606 6.913,13.102ZM9.514,13.102C9.514,12.596 9.924,12.183 10.431,12.183C10.938,12.183 11.35,12.596 11.35,13.102C11.35,13.606 10.938,14.019 10.431,14.019C9.924,14.019 9.514,13.606 9.514,13.102ZM12.113,13.102C12.113,12.596 12.525,12.183 13.03,12.183C13.535,12.183 13.949,12.596 13.949,13.102C13.949,13.606 13.535,14.019 13.03,14.019C12.525,14.019 12.113,13.606 12.113,13.102Z"/>
<path d="M27.493,27.834L27.493,26.674L28.652,26.674L28.652,27.834L27.493,27.834ZM31.194,27.834L31.194,26.674L32.353,26.674L32.353,27.834L31.194,27.834ZM34.991,27.834L34.991,26.676L36.152,26.676L36.152,27.834L34.991,27.834ZM27.493,24.329L27.493,23.169L28.652,23.169L28.652,24.329L27.493,24.329ZM31.194,24.329L31.194,23.169L32.353,23.169L32.353,24.329L31.194,24.329ZM34.991,24.329L34.991,23.171L36.152,23.171L36.152,24.329L34.991,24.329ZM27.493,20.824L27.493,19.665L28.652,19.665L28.652,20.824L27.493,20.824ZM31.194,20.824L31.194,19.665L32.353,19.665L32.353,20.824L31.194,20.824ZM34.991,20.824L34.991,19.667L36.152,19.667L36.152,20.824L34.991,20.824Z" id="Group_68"/>
<path d="M7.458,23.98C7.458,21.152 9.765,18.845 12.593,18.845C15.422,18.845 17.728,21.152 17.728,23.98C17.728,26.808 15.422,29.115 12.593,29.115C9.765,29.115 7.458,26.808 7.458,23.98ZM14.267,23.982C14.267,23.056 13.516,22.305 12.591,22.305C11.666,22.305 10.915,23.056 10.915,23.982C10.915,24.907 11.666,25.659 12.591,25.659C13.516,25.659 14.267,24.907 14.267,23.982Z"/>
<path d="M3.552,35.218L3.552,12.289C3.552,10.618 4.907,9.263 6.578,9.263L41.227,9.263C42.895,9.263 44.255,10.616 44.255,12.289L44.255,35.218C44.255,36.888 42.897,38.244 41.227,38.244L6.578,38.244C4.907,38.244 3.552,36.888 3.552,35.218ZM19.609,36.329L19.609,11.178L6.578,11.178C5.965,11.178 5.466,11.676 5.466,12.289L5.466,35.218C5.466,35.831 5.965,36.329 6.578,36.329L19.609,36.329ZM42.34,35.218L42.34,12.289C42.34,11.679 41.841,11.178 41.227,11.178L20.673,11.178L20.673,36.329L41.227,36.329C41.839,36.329 42.34,35.831 42.34,35.218Z"/>
<path d="M22.371,34.375L22.371,31.968C22.371,31.677 22.609,31.436 22.903,31.436C23.195,31.436 23.435,31.677 23.435,31.968L23.435,33.843L25.31,33.843C25.601,33.843 25.842,34.083 25.842,34.375C25.842,34.668 25.601,34.907 25.31,34.907L22.903,34.907C22.609,34.907 22.371,34.668 22.371,34.375ZM37.069,34.375C37.069,34.083 37.307,33.843 37.601,33.843L39.476,33.843L39.476,31.968C39.476,31.677 39.714,31.436 40.007,31.436C40.299,31.436 40.54,31.677 40.54,31.968L40.54,34.375C40.54,34.668 40.299,34.907 40.007,34.907L37.601,34.907C37.307,34.907 37.069,34.668 37.069,34.375ZM22.369,15.796L22.369,13.389C22.369,13.098 22.607,12.857 22.901,12.857L25.308,12.857C25.599,12.857 25.84,13.098 25.84,13.389C25.84,13.683 25.599,13.921 25.308,13.921L23.433,13.921L23.433,15.796C23.433,16.09 23.193,16.328 22.901,16.328C22.607,16.328 22.369,16.09 22.369,15.796ZM39.473,15.796L39.473,13.921L37.599,13.921C37.305,13.921 37.067,13.683 37.067,13.389C37.067,13.098 37.305,12.857 37.599,12.857L40.005,12.857C40.297,12.857 40.538,13.098 40.538,13.389L40.538,15.796C40.538,16.09 40.297,16.328 40.005,16.328C39.712,16.328 39.473,16.09 39.473,15.796Z"/>
</g>
</svg>